<svg xmlns="http://www.w3.org/2000/svg" xmlns:xlink="http://www.w3.org/1999/xlink" viewBox="0 0 100 100"><title>SVG Logo</title><a xlink:href="http://www.w3.org/Graphics/SVG/" target="_parent" xlink:title="W3C SVG Working Group home page"><rect fill="#F90" width="100" height="100" rx="4" ry="4"/><rect fill="#FFB13B" width="50" height="50" rx="4" ry="4"/><rect x="50" y="50" fill="#DE8500" width="50" height="50" rx="4" ry="4"/><g fill="#F90"><circle cx="50" cy="18.4" r="18.4"/><circle cx="72.4" cy="27.6" r="18.4"/><circle cx="81.6" cy="50" r="18.4"/><circle cx="72.4" cy="72.4" r="18.4"/><circle cx="50" cy="81.6" r="18.4"/><circle cx="27.6" cy="72.4" r="18.4"/><circle cx="18.4" cy="50" r="18.4"/><circle cx="27.6" cy="27.6" r="18.4"/></g><path d="M63.086 18.385c0-7.227-5.86-13.086-13.1-13.086-7.235 0-13.096 5.858-13.096 13.085-5.1-5.11-13.395-5.11-18.497 0-5.12 5.12-5.12 13.408 0 18.524-7.234 0-13.103 5.858-13.103 13.084 0 7.23 5.87 13.098 13.103 13.098-5.12 5.11-5.12 13.395 0 18.515 5.102 5.104 13.397 5.104 18.497 0 0 7.228 5.86 13.083 13.096 13.083 7.24 0 13.1-5.855 13.1-13.083 5.118 5.104 13.416 5.104 18.513 0 5.1-5.12 5.1-13.41 0-18.515 7.215 0 13.08-5.87 13.08-13.098 0-7.227-5.865-13.085-13.08-13.085 5.1-5.12 5.1-13.407 0-18.525-5.098-5.11-13.394-5.11-18.514 0z"/><path fill="#FFF" d="M55.003 23.405v14.488L65.26 27.64c0-1.812.69-3.618 2.066-5.005 2.78-2.77 7.275-2.77 10.024 0a7.086 7.086 0 0 1-5.015 12.1L62.1 44.98h14.49a7.088 7.088 0 0 1 5.01-2.076c3.9 0 7.08 3.18 7.08 7.087 0 3.906-3.18 7.088-7.08 7.088a7.11 7.11 0 0 1-5.01-2.07H62.1l10.23 10.243c1.823 0 3.64.694 5.014 2.086a7.06 7.06 0 0 1 0 10.01c-2.75 2.773-7.24 2.773-10.025 0a7.068 7.068 0 0 1-2.065-5.004L55 62.094v14.5a7.11 7.11 0 0 1 2.084 5.012c0 3.906-3.177 7.077-7.098 7.077-3.92 0-7.094-3.167-7.094-7.077 0-1.96.81-3.732 2.08-5.013v-14.5L34.74 72.347a7.065 7.065 0 0 1-2.084 5.003 7.08 7.08 0 0 1-10.024 0 7.06 7.06 0 0 1 0-10.013 7.067 7.067 0 0 1 5.012-2.086L37.9 55.01H23.413a7.134 7.134 0 0 1-5.015 2.07c-3.918 0-7.097-3.18-7.097-7.087s3.177-7.087 7.096-7.087c1.94 0 3.724.796 5.014 2.076h14.488L27.646 34.736a7.125 7.125 0 0 1-5.012-2.07 7.08 7.08 0 0 1 0-10.028 7.086 7.086 0 0 1 10.027 0 7.106 7.106 0 0 1 2.084 5.005L44.98 37.895V23.407c-1.27-1.287-2.083-3.053-2.083-5.023 0-3.908 3.175-7.08 7.096-7.08 3.92 0 7.097 3.17 7.097 7.08-.002 1.972-.816 3.735-2.087 5.02z"/><g><path d="M5.3 50h89.38v40q0 5-5 5H10.3q-5 0-5-5z"/><path fill="#3F3F3F" d="M14.657 54.21H86.05c2.91 0 5.313 2.386 5.313 5.316v17.91c-27.584-3.403-54.926-8.125-82.01-7.683V59.526c0-2.93 2.39-5.315 5.304-5.315z"/><title>SVG</title><path fill="#FFF" stroke="#000" stroke-width=".503" d="M18.312 72.927a11.65 11.65 0 0 1-3.407-8.253c0-6.445 5.223-11.672 11.666-11.672 6.447 0 11.668 5.225 11.668 11.672h-6.832a4.836 4.836 0 0 0-9.673 0 4.87 4.87 0 0 0 1.415 3.42A4.86 4.86 0 0 0 26.57 69.5v.01a11.59 11.59 0 0 1 8.244 3.417 11.617 11.617 0 0 1 3.424 8.248c0 6.454-5.22 11.68-11.667 11.68-6.44 0-11.665-5.222-11.665-11.68h6.828a4.837 4.837 0 0 0 9.673 0c0-1.33-.545-2.527-1.43-3.407a4.77 4.77 0 0 0-3.405-1.418c-3.23 0-6.14-1.314-8.258-3.423zM61.588 53.005l-8.244 39.85h-6.85l-8.258-39.85h6.846l4.838 23.337 4.835-23.337zM73.255 69.513h11.683v11.664c0 6.452-5.226 11.678-11.67 11.678-6.44 0-11.665-5.226-11.665-11.678v-16.5h-.017c0-6.448 5.24-11.677 11.667-11.677 6.46 0 11.683 5.225 11.683 11.676h-6.85a4.826 4.826 0 0 0-4.833-4.837c-2.647 0-4.82 2.162-4.82 4.836v16.5c0 2.676 2.173 4.838 4.82 4.838a4.823 4.823 0 0 0 4.834-4.827V76.348h-4.834l.002-6.835z"/></g></a></svg>